#!OML:ASF F:\VICON\USERDATA\INSTALL\rory3\rory3.ASF
:FULLY-SPECIFIED
:DEGREES
1141
root 2.01632 17.9454 12.3394 10.5074 -78.549 -357.885
lowerback 2.28457 -1.80932 -2.75656
upperback 1.88371 -2.50826 3.26301
thorax 0.922812 -1.32848 4.94619
lowerneck -9.91651 3.23266 -12.1928
upperneck 43.6481 4.1641 4.2093
head 17.3426 -0.457344 4.60657
rclavicle -3.29983e-014 4.92986e-014
rhumerus -30.0811 -10.6465 -74.187
rradius 29.8923
rwrist 19.9874
rhand -21.3792 2.24167
rfingers 7.12502
rthumb 5.00818 -27.6791
lclavicle -3.29983e-014 4.92986e-014
lhumerus -31.444 25.3347 75.7255
lradius 27.1164
lwrist -9.54248
lhand -15.6098 25.2253
lfingers 7.12502
lthumb 10.5766 54.9392
rfemur -20.4922 -0.722625 22.8001
rtibia 28.3492
rfoot -20.7331 -7.63435
rtoes 18.8031
lfemur -19.0811 1.78833 -15.4908
ltibia 19.2931
lfoot -5.8627 29.1589
ltoes -4.40844
1142
root 1.99802 17.943 12.3027 10.729 -78.539 -358.236
lowerback 2.23758 -1.86893 -2.63162
upperback 1.92684 -2.5885 3.33336
thorax 0.999768 -1.37112 4.94645
lowerneck -9.98763 3.28804 -12.2609
upperneck 43.7691 4.25584 4.23926
head 17.4176 -0.440151 4.65379
rclavicle -3.91606e-014 -6.36111e-015
rhumerus -29.981 -10.5501 -74.158
rradius 30.0181
rwrist 20.092
rhand -21.4114 2.18791
rfingers 7.12502
rthumb 4.97714 -27.7336
lclavicle -3.91606e-014 -6.36111e-015
lhumerus -31.6227 25.4507 75.7269
lradius 27.0217
lwrist -9.52649
lhand -15.6638 25.2905
lfingers 7.12502
lthumb 10.5245 55.007
rfemur -20.2908 -0.702847 23.0224
rtibia 28.2968
rfoot -20.7674 -7.65838
rtoes 19.0696
lfemur -19.1094 2.3079 -15.385
ltibia 19.6134
lfoot -5.9859 28.5763
ltoes -3.59221
1143
root 1.9809 17.9407 12.2693 10.8356 -78.569 -358.448
lowerback 2.19639 -1.85868 -2.55567
upperback 1.94073 -2.57488 3.37514
thorax 1.0342 -1.36513 4.94501
lowerneck -9.89819 3.27319 -12.1659
upperneck 43.7906 4.22557 4.12914
head 17.42 -0.455212 4.57866
rclavicle -2.20651e-014 2.54444e-014
rhumerus -29.9882 -10.506 -74.1091
rradius 30.1814
rwrist 20.0685
rhand -21.4662 2.2309
rfingers 7.12502
rthumb 4.92424 -27.6919
lclavicle -2.20651e-014 2.54444e-014
lhumerus -31.7524 25.3182 75.8079
lradius 26.9132
lwrist -9.51502
lhand -15.6588 25.5091
lfingers 7.12502
lthumb 10.5293 55.2254
rfemur -20.0996 -0.483886 23.1764
rtibia 28.2437
rfoot -20.9226 -7.7782
rtoes 19.2779
lfemur -19.1802 2.99031 -15.379
ltibia 19.9906
lfoot -5.86692 28.0273
ltoes -3.68874
1144
root 1.96267 17.9368 12.2394 10.7866 -78.6269 -358.524
lowerback 2.14423 -1.86929 -2.50038
upperback 1.97381 -2.59064 3.44253
thorax 1.09993 -1.37566 4.98136
lowerneck -9.74649 3.30682 -12.2255
upperneck 43.7327 4.28953 4.06036
head 17.3417 -0.443019 4.55728
rclavicle 5.1684e-015 -2.06736e-014
rhumerus -29.9042 -10.3269 -74.0387
rradius 30.309
rwrist 19.9448
rhand -21.3888 2.25484
rfingers 7.12502
rthumb 4.99894 -27.6662
lclavicle 5.1684e-015 -2.06736e-014
lhumerus -31.8798 25.4432 75.844
lradius 26.7854
lwrist -9.56005
lhand -15.7719 25.5897
lfingers 7.12502
lthumb 10.4202 55.3115
rfemur -19.9099 -0.430631 23.3014
rtibia 28.2203
rfoot -20.9955 -7.72837
rtoes 19.1257
lfemur -19.2078 3.86945 -15.4472
ltibia 20.3475
lfoot -5.79588 27.2337
ltoes -3.70622
1145
root 1.94184 17.9374 12.2123 10.2707 -78.6885 -358.102
lowerback 2.02965 -1.89247 -2.52216
upperback 2.00082 -2.6224 3.47811
thorax 1.19819 -1.39502 5.026
lowerneck -9.655 3.33176 -12.2415
upperneck 43.7486 4.34331 3.96632
head 17.3268 -0.439274 4.52081
rclavicle 2.78299e-015 7.15625e-015
rhumerus -29.8479 -10.2485 -73.9794
rradius 30.4521
rwrist 19.8502
rhand -21.2427 2.30883
rfingers 7.12502
rthumb 5.13999 -27.6088
lclavicle 2.78299e-015 7.15625e-015
lhumerus -32.0865 25.8798 75.7723
lradius 26.72
lwrist -9.8571
lhand -15.691 25.6089
lfingers 7.12502
lthumb 10.4983 55.3267
rfemur -19.7404 -0.43189 23.3168
rtibia 28.2195
rfoot -21.0153 -7.6798
rtoes 19.0988
lfemur -19.2146 4.45123 -15.5853
ltibia 20.6841
lfoot -6.02829 26.5625
ltoes -3.16741
1146
root 1.91975 17.9368 12.1868 9.13247 -78.8469 -357.033
lowerback 1.91392 -1.84552 -2.60959
upperback 2.00982 -2.55658 3.37335
thorax 1.26423 -1.36268 4.96163
lowerneck -9.60813 3.30872 -12.1044
upperneck 43.8325 4.2569 3.94672
head 17.3782 -0.464705 4.47692
rclavicle -2.26615e-014 1.43125e-014
rhumerus -29.9083 -10.3439 -73.9987
rradius 30.6649
rwrist 19.7934
rhand -21.2153 2.38395
rfingers 7.12502
rthumb 5.16643 -27.5331
lclavicle -2.26615e-014 1.43125e-014
lhumerus -32.2353 26.1606 75.6081
lradius 26.6011
lwrist -10.1834
lhand -15.5152 25.5895
lfingers 7.12502
lthumb 10.6679 55.2986
rfemur -19.6223 -0.3299 23.1597
rtibia 28.2505
rfoot -21.0869 -7.58063
rtoes 19.5479
lfemur -19.193 4.57052 -15.7777
ltibia 21.0306
lfoot -6.46963 26.2334
ltoes -2.78393
1147
root 1.90406 17.9358 12.1576 8.41094 -78.9448 -356.421
lowerback 1.95561 -1.82247 -2.64251
upperback 1.98597 -2.52504 3.33612
thorax 1.21261 -1.34508 4.94348
lowerneck -9.57802 3.30996 -12.0951
upperneck 43.9123 4.22393 3.98465
head 17.4193 -0.48083 4.49025
rclavicle 2.38542e-014 -3.97569e-015
rhumerus -29.9532 -9.97017 -74.0346
rradius 30.9148
rwrist 19.3892
rhand -21.1853 2.39705
rfingers 7.12502
rthumb 5.19544 -27.5193
lclavicle 2.38542e-014 -3.97569e-015
lhumerus -32.3968 26.1397 75.5863
lradius 26.5446
lwrist -10.0769
lhand -15.4136 25.6104
lfingers 7.12502
lthumb 10.7659 55.3145
rfemur -19.4794 -0.188958 23.1295
rtibia 28.2747
rfoot -21.1943 -7.58476
rtoes 19.7646
lfemur -19.2167 4.90243 -15.8697
ltibia 21.4534
lfoot -6.84785 25.4507
ltoes -3.70612
1148
root 1.88631 17.9333 12.1345 7.98812 -79.0393 -356.079
lowerback 1.88878 -1.78349 -2.57364
upperback 1.9702 -2.47104 3.33223
thorax 1.22476 -1.31685 4.89814
lowerneck -9.52328 3.28729 -12.0866
upperneck 43.9162 4.18511 3.95738
head 17.4145 -0.49978 4.46853
rclavicle 2.98177e-015 -9.54166e-015
rhumerus -29.9619 -9.7813 -73.978
rradius 31.0509
rwrist 19.2421
rhand -21.1072 2.55181
rfingers 7.12502
rthumb 5.27083 -27.3626
lclavicle 2.98177e-015 -9.54166e-015
lhumerus -32.5415 26.1047 75.6078
lradius 26.4974
lwrist -10.0646
lhand -15.3449 25.5821
lfingers 7.12502
lthumb 10.8321 55.2827
rfemur -19.3541 -0.15234 23.151
rtibia 28.3124
rfoot -21.2139 -7.50879
rtoes 20.0479
lfemur -19.3025 5.59478 -16.0227
ltibia 21.9349
lfoot -7.13329 24.1159
ltoes -5.6196
1149
root 1.86651 17.928 12.1114 8.31912 -79.1073 -356.552
lowerback 1.78856 -1.71463 -2.37921
upperback 2.02549 -2.3795 3.37644
thorax 1.32187 -1.27234 4.82934
lowerneck -9.53074 3.22533 -12.1125
upperneck 43.8807 4.09313 3.98828
head 17.4052 -0.532635 4.47358
rclavicle -2.92213e-014 6.36111e-015
rhumerus -29.9192 -9.97305 -73.8624
rradius 31.178
rwrist 19.4112
rhand -21.2614 2.50586
rfingers 7.12502
rthumb 5.12196 -27.4122
lclavicle -2.92213e-014 6.36111e-015
lhumerus -32.5281 25.9947 75.7702
lradius 26.4335
lwrist -10.1063
lhand -15.6324 25.7033
lfingers 7.12502
lthumb 10.5548 55.4183
rfemur -19.1588 -0.107048 23.3422
rtibia 28.3299
rfoot -21.2134 -7.46346
rtoes 20.1852
lfemur -19.3846 6.42086 -16.0454
ltibia 22.5111
lfoot -7.37958 22.4958
ltoes -7.41047
1150
root 1.84787 17.9234 12.0878 8.04798 -79.2804 -356.479
lowerback 1.76899 -1.67712 -2.37304
upperback 2.10259 -2.33303 3.41851
thorax 1.40921 -1.25331 4.86778
lowerneck -9.57991 3.21231 -12.1228
upperneck 43.8754 4.11422 3.92062
head 17.4171 -0.534422 4.44858
rclavicle 5.96354e-016 8.74653e-015
rhumerus -29.8087 -9.82833 -73.8598
rradius 31.3081
rwrist 19.4462
rhand -21.5261 2.26306
rfingers 7.12502
rthumb 4.86638 -27.6611
lclavicle 5.96354e-016 8.74653e-015
lhumerus -32.5828 26.0969 75.8676
lradius 26.4276
lwrist -9.90255
lhand -15.9459 25.6719
lfingers 7.12502
lthumb 10.2524 55.402
rfemur -18.8969 0.031872 23.409
rtibia 28.3315
rfoot -21.2198 -7.44696
rtoes 20.2202
lfemur -19.3936 7.05206 -16.1321
ltibia 23.1511
lfoot -7.9498 21.2171
ltoes -8.01439
1151
root 1.83473 17.9247 12.0607 7.21879 -79.4233 -355.736
lowerback 1.80431 -1.6905 -2.52589
upperback 2.06981 -2.35175 3.43415
thorax 1.36486 -1.26355 4.97272
lowerneck -9.58577 3.26188 -12.2132
upperneck 43.9365 4.18012 3.98468
head 17.4406 -0.521496 4.50607
rclavicle -1.8487e-014 3.10104e-014
rhumerus -29.692 -9.59954 -73.8872
rradius 31.3242
rwrist 19.3767
rhand -21.7018 2.33253
rfingers 7.12502
rthumb 4.69667 -27.5954
lclavicle -1.8487e-014 3.10104e-014
lhumerus -32.8189 26.296 75.7946
lradius 26.5281
lwrist -9.73708
lhand -15.8405 25.7659
lfingers 7.12502
lthumb 10.354 55.491
rfemur -18.749 0.248357 23.3524
rtibia 28.3242
rfoot -21.3101 -7.51654
rtoes 20.4259
lfemur -19.5542 7.49752 -16.3067
ltibia 23.8248
lfoot -8.58841 20.1453
ltoes -7.6214
1152
root 1.81946 17.9277 12.0384 6.45802 -79.5659 -355.145
lowerback 1.93623 -1.6375 -2.52426
upperback 2.00976 -2.27947 3.38548
thorax 1.21908 -1.22225 4.92647
lowerneck -9.45872 3.29237 -12.1497
upperneck 43.985 4.1694 3.99892
head 17.4369 -0.519801 4.49674
rclavicle 1.31198e-014 -7.15625e-015
rhumerus -29.7219 -9.83154 -73.807
rradius 31.2982
rwrist 19.6337
rhand -21.7707 2.49302
rfingers 7.12502
rthumb 4.63014 -27.4364
lclavicle 1.31198e-014 -7.15625e-015
lhumerus -33.0779 26.3667 75.6586
lradius 26.5858
lwrist -9.89287
lhand -15.4208 25.6752
lfingers 7.12502
lthumb 10.7589 55.3797
rfemur -18.5154 0.550302 23.3066
rtibia 28.3409
rfoot -21.4139 -7.67678
rtoes 20.3259
lfemur -19.587 7.61388 -16.4063
ltibia 24.4729
lfoot -9.07502 19.1866
ltoes -7.25857
1153
root 1.79977 17.9262 12.0216 5.81399 -79.727 -354.612
lowerback 1.86187 -1.39878 -2.35297
upperback 1.9885 -1.95189 3.15619
thorax 1.18947 -1.05075 4.58746
lowerneck -9.18279 3.13488 -11.6283
upperneck 43.865 3.75009 3.9879
head 17.3529 -0.594178 4.32474
rclavicle -5.56597e-015 6.36111e-015
rhumerus -29.7843 -10.3198 -73.7635
rradius 31.2447
rwrist 19.4825
rhand -21.5932 2.41988
rfingers 7.12502
rthumb 4.8016 -27.5057
lclavicle -5.56597e-015 6.36111e-015
lhumerus -32.9215 25.743 75.6615
lradius 26.4484
lwrist -9.97977
lhand -15.2577 25.5511
lfingers 7.12502
lthumb 10.9162 55.2473
rfemur -18.3296 0.742703 23.2578
rtibia 28.3426
rfoot -21.4191 -7.69371
rtoes 20.386
lfemur -19.6615 7.81001 -16.5387
ltibia 25.146
lfoot -9.38041 17.8688
ltoes -8.07728
1154
root 1.7805 17.9236 12.0046 4.80205 -79.8878 -353.682
lowerback 1.72855 -1.14103 -2.29189
upperback 1.99848 -1.60015 2.91558
thorax 1.23066 -0.870624 4.29807
lowerneck -8.97472 2.93674 -11.0446
upperneck 43.7302 3.30319 3.90439
head 17.2842 -0.678107 4.10634
rclavicle 1.92821e-014 -1.19271e-014
rhumerus -29.7701 -10.658 -73.7974
rradius 31.1929
rwrist 18.9991
rhand -21.3905 2.50871
rfingers 7.12502
rthumb 4.99734 -27.4124
lclavicle 1.92821e-014 -1.19271e-014
lhumerus -32.6588 24.8507 75.8173
lradius 26.3693
lwrist -9.66263
lhand -15.4253 25.5785
lfingers 7.12502
lthumb 10.7546 55.2832
rfemur -18.1679 0.704954 23.157
rtibia 28.336
rfoot -21.3676 -7.54485
rtoes 20.217
lfemur -19.7623 8.07632 -16.774
ltibia 25.8576
lfoot -9.69939 16.401
ltoes -8.93584
1155
root 1.76279 17.9204 11.9855 4.74996 -79.9934 -353.812
lowerback 1.73393 -1.16581 -2.24396
upperback 2.04376 -1.63706 3.02145
thorax 1.27961 -0.892136 4.38065
lowerneck -9.05963 2.98638 -11.2464
upperneck 43.7023 3.45732 3.89723
head 17.2702 -0.646044 4.16281
rclavicle -1.63003e-014 -1.19271e-014
rhumerus -29.5546 -10.5832 -73.7803
rradius 31.1576
rwrist 19.168
rhand -21.454 2.52277
rfingers 7.12502
rthumb 4.93603 -27.3997
lclavicle -1.63003e-014 -1.19271e-014
lhumerus -32.8083 25.0124 75.9274
lradius 26.5343
lwrist -9.47317
lhand -15.5533 25.5703
lfingers 7.12502
lthumb 10.6311 55.2814
rfemur -17.9276 0.821705 23.2529
rtibia 28.349
rfoot -21.4945 -7.50657
rtoes 20.2447
lfemur -19.8125 8.21286 -16.7554
ltibia 26.5906
lfoot -10.0297 15.0121
ltoes -9.43351
